:SAMPLES-PER-SECOND 30
:FULLY-SPECIFIED
:DEGREES
334
root  -7.52316 38.7156 15.3912 -179.292 40.7526 178.171
RightUpLeg  -18.6443 -6.5933 -7.34621
RightLeg  24.2881 -5.12806 -2.75661
RightFoot  -3.79813 -0.957922 14.0764
RightToes  -1.39699e-009 0 -3.6325e-017
Spine  11.7354 -0.899273 -7.45385
Spine1  17.9276 -2.66422 2.62862
HEad  -15.3422 34.3978 -12.1149
LeftShoulder1  1.44249 -3.07481 -15.0897
LeftArm  9.81314 10.1159 -55.1381
LeftForeArm  83.8459 -79.5571 -91.4005
LeftHand  -1.81218 -3.01875 24.9379
RightShoulder  0.460803 -0.908027 10.6106
RightArm  11.1481 -9.45286 59.1483
RightForeArm  157.842 63.2395 159.224
RightHand  -0.8816 4.60487 -10.4979
LeftUpLeg  -7.78295 -3.55806 7.61696
LeftLeg  33.7601 -4.19515 -2.65708
LeftFoot  -10.942 0.128903 -18.1791
LeftToes  3.40148e-010 1.80944e-010 1.01921e-010
335
root  -7.16811 38.353 15.4532 179.888 40.0801 178.839
RightUpLeg  -18.7718 -5.53656 -6.47697
RightLeg  28.3531 -6.42943 -3.97661
RightFoot  -6.17852 -0.635058 13.1256
RightToes  -1.39699e-009 0 -3.6325e-017
Spine  12.5547 -1.19632 -6.31502
Spine1  18.6606 -2.72415 2.17279
HEad  -16.0698 34.3107 -12.3814
LeftShoulder1  1.54024 -3.39915 -15.5154
LeftArm  9.85846 9.54137 -56.0737
LeftForeArm  76.483 -79.5231 -83.038
LeftHand  -1.85373 -3.16897 25.0543
RightShoulder  0.488825 -0.767162 10.7284
RightArm  9.94139 -7.31809 59.1937
RightForeArm  156.872 64.0198 158.443
RightHand  -0.930394 4.63742 -11.0234
LeftUpLeg  -8.94231 -4.05291 9.00487
LeftLeg  38.7358 -4.83951 -3.78328
LeftFoot  -10.4165 0.221468 -19.3204
LeftToes  3.40148e-010 1.80944e-010 1.01921e-010
336
root  -6.89506 38.0789 15.4751 179.124 39.2083 179.304
RightUpLeg  -18.7136 -6.03228 -5.95598
RightLeg  31.5083 -6.40607 -4.46251
RightFoot  -7.97801 -0.436139 12.9696
RightToes  -1.39699e-009 0 -3.6325e-017
Spine  13.1944 -1.58201 -5.20819
Spine1  19.4062 -2.82177 1.69688
HEad  -16.1631 34.008 -12.2119
LeftShoulder1  1.59307 -3.46857 -16.1001
LeftArm  10.1575 8.57414 -57.2971
LeftForeArm  66.0071 -79.1041 -72.1577
LeftHand  -1.91861 -3.21043 25.7781
RightShoulder  0.54054 -0.482137 10.7468
RightArm  8.69543 -6.06327 59.4194
RightForeArm  156.184 64.8089 157.641
RightHand  -1.01722 4.75454 -11.8889
LeftUpLeg  -10.2333 -5.03351 10.1205
LeftLeg  43.0315 -5.69402 -5.27989
LeftFoot  -8.89018 0.509137 -21.0865
LeftToes  3.40148e-010 1.80944e-010 1.01921e-010
337
root  -6.69725 37.932 15.4317 178.708 38.7844 179.555
RightUpLeg  -18.6301 -6.94912 -5.72662
RightLeg  33.2051 -5.74941 -4.29605
RightFoot  -8.72668 -0.359873 13.0997
RightToes  -1.39699e-009 0 -3.6325e-017
Spine  13.346 -1.74064 -4.2375
Spine1  19.88 -2.66229 1.34894
HEad  -15.2777 33.692 -11.5653
LeftShoulder1  1.62466 -3.44578 -16.6757
LeftArm  10.7735 8.09368 -58.5781
LeftForeArm  58.5513 -78.5391 -64.5474
LeftHand  -1.97486 -3.22441 26.4605
RightShoulder  0.571386 -0.319614 10.804
RightArm  7.91058 -5.82739 59.6944
RightForeArm  156.018 65.3597 157.087
RightHand  -1.0711 4.86755 -12.3693
LeftUpLeg  -11.0996 -6.21832 10.8138
LeftLeg  45.6661 -6.51482 -6.67905
LeftFoot  -8.15543 0.678814 -22.4761
LeftToes  3.40148e-010 1.80944e-010 1.01921e-010
338
root  -6.56332 37.961 15.3357 178.676 39.1949 179.469
RightUpLeg  -18.575 -7.18695 -5.71593
RightLeg  33.3071 -5.29672 -3.99555
RightFoot  -8.43996 -0.387511 12.9838
RightToes  -1.39699e-009 0 -3.6325e-017
Spine  12.9714 -1.54455 -3.75335
Spine1  19.999 -2.19398 1.01775
HEad  -14.2604 33.7069 -11.083
LeftShoulder1  1.63712 -3.37829 -17.1216
LeftArm  11.5687 8.70517 -59.5674
LeftForeArm  57.9783 -78.4571 -63.4903
LeftHand  -2.03826 -3.41077 26.7232
RightShoulder  0.564706 -0.384876 10.9875
RightArm  7.87395 -6.15741 59.8343
RightForeArm  156.45 65.5306 156.964
RightHand  -1.05357 4.88932 -12.1466
LeftUpLeg  -11.0965 -6.89047 10.993
LeftLeg  45.5831 -6.45042 -6.60531
LeftFoot  -9.0233 0.509349 -22.1522
LeftToes  3.40148e-010 1.80944e-010 1.01921e-010
339
root  -6.4899 38.1737 15.2141 178.82 40.0351 178.974
RightUpLeg  -18.398 -6.87003 -6.02043
RightLeg  32.0035 -5.15189 -3.71549
RightFoot  -7.46904 -0.487054 12.8453
RightToes  -1.39699e-009 0 -3.6325e-017
Spine  12.3529 -1.2056 -4.01226
Spine1  19.821 -1.74408 0.669943
HEad  -13.902 34.0816 -11.1869
LeftShoulder1  1.60649 -3.19837 -17.3165
LeftArm  12.5069 10.162 -60.068
LeftForeArm  62.7228 -78.8531 -67.7178
LeftHand  -2.08851 -3.71423 26.484
RightShoulder  0.547394 -0.494279 11.0834
RightArm  8.38884 -6.70485 59.8955
RightForeArm  156.983 65.3484 157.203
RightHand  -0.99304 4.78825 -11.5783
LeftUpLeg  -10.3349 -6.93159 10.7037
LeftLeg  42.4192 -5.0876 -4.59976
LeftFoot  -10.1099 0.27736 -20.0992
LeftToes  3.40148e-010 1.80944e-010 1.01921e-010
340
root  -6.49271 38.4575 15.075 178.971 40.5994 178.247
RightUpLeg  -18.1588 -6.63512 -6.67021
RightLeg  30.1484 -5.05259 -3.40842
RightFoot  -6.0538 -0.650257 13.1188
RightToes  -1.39699e-009 0 -3.6325e-017
Spine  11.8428 -1.0044 -4.76362
Spine1  19.3797 -1.62737 0.543748
HEad  -13.9654 34.4356 -11.576
LeftShoulder1  1.54848 -2.99527 -17.1596
LeftArm  13.6312 11.7531 -60.1471
LeftForeArm  68.3497 -79.2311 -73.5122
LeftHand  -2.05753 -3.86351 25.7017
RightShoulder  0.536074 -0.540084 10.9723
RightArm  9.13165 -7.43362 59.9574
RightForeArm  157.094 64.9829 157.572
RightHand  -0.929775 4.62156 -11.0349
LeftUpLeg  -9.28476 -7.19082 10.083
LeftLeg  37.3769 -3.07169 -2.15028
LeftFoot  -10.1389 0.24827 -17.8827
LeftToes  3.40148e-010 1.80944e-010 1.01921e-010
